<?xml version="1.0" standalone="no"?>
<!DOCTYPE svg PUBLIC "-//W3C//DTD SVG 20010904//EN"
 "http://www.w3.org/TR/2001/REC-SVG-20010904/DTD/svg10.dtd">
<svg version="1.0" xmlns="http://www.w3.org/2000/svg"
 width="920.000000pt" height="707.000000pt" viewBox="0 0 920.000000 707.000000"
 preserveAspectRatio="xMidYMid meet">
<metadata>
Created by potrace 1.16, written by Peter Selinger 2001-2019
</metadata>
<g transform="translate(0.000000,707.000000) scale(0.100000,-0.100000)"
fill="#000000" stroke="none">
<path d="M3035 6650 c-238 -48 -447 -230 -516 -450 -64 -205 -39 -405 71 -572
95 -144 252 -258 406 -294 89 -20 230 -20 318 0 228 54 431 255 491 487 25 95
17 302 -15 383 -61 159 -196 314 -331 379 -135 67 -297 92 -424 67z"/>
<path d="M5241 6644 c-36 -7 -108 -35 -160 -61 -217 -107 -353 -314 -367 -557
-8 -130 11 -218 70 -340 73 -151 214 -276 373 -331 185 -65 395 -45 563 52 79
46 193 158 238 235 82 138 112 328 78 488 -41 194 -176 366 -357 454 -154 74
-288 93 -438 60z"/>
<path d="M2634 5339 c-207 -19 -407 -164 -469 -339 -9 -25 -40 -158 -70 -297
-30 -138 -59 -271 -65 -295 -5 -24 -53 -245 -106 -493 -90 -424 -96 -455 -92
-546 3 -90 7 -103 45 -181 25 -49 63 -105 92 -136 l51 -53 2 -1167 3 -1167 22
-48 c33 -70 113 -149 186 -183 130 -60 287 -30 390 74 25 26 59 74 74 107 l28
60 3 1102 2 1103 58 29 c126 63 212 173 251 321 11 41 41 176 67 300 26 124
50 229 55 234 4 5 31 -13 59 -40 111 -105 244 -179 442 -244 195 -65 546 -129
628 -115 62 10 135 60 170 114 l32 50 77 6 c118 10 316 44 408 71 144 42 254
99 346 181 22 19 40 33 42 31 2 -2 18 -68 35 -148 108 -500 116 -526 169 -604
35 -50 107 -118 149 -140 21 -11 58 -16 116 -16 l84 0 23 47 c23 48 99 132
153 169 l28 21 -31 140 c-65 291 -166 637 -251 858 -69 179 -72 205 -25 205
50 0 84 -78 199 -450 85 -276 206 -735 206 -782 0 -9 -22 -29 -53 -46 -29 -16
-70 -49 -91 -72 -36 -40 -86 -131 -86 -157 0 -10 -61 -13 -252 -15 l-253 -3
-3 -743 -2 -742 1004 0 1004 0 7 203 c3 111 5 445 3 742 l-3 540 -252 3 c-193
2 -253 5 -253 15 0 6 -13 39 -29 72 -32 68 -101 137 -165 165 l-42 19 -13 78
c-26 156 -451 1826 -480 1888 -41 86 -83 139 -151 189 -104 76 -224 104 -381
86 -259 -29 -478 -220 -544 -475 -9 -33 -23 -107 -31 -165 -21 -143 -68 -333
-98 -402 -44 -99 -116 -161 -226 -196 -66 -22 -255 -44 -435 -52 -224 -9 -261
-18 -329 -81 l-53 -48 -114 30 c-145 38 -267 97 -326 155 -84 85 -136 236
-182 539 -46 298 -79 383 -191 496 -164 163 -327 220 -566 198z m3780 -2469
c66 -21 158 -8 219 32 36 24 59 33 75 29 32 -8 88 -56 95 -80 5 -21 3 -21
-314 -21 -234 0 -319 3 -319 12 0 18 77 86 102 90 13 2 40 -8 63 -23 22 -14
58 -32 79 -39z"/>
<path d="M5812 953 c3 -286 3 -288 29 -343 33 -70 103 -141 177 -177 49 -24
69 -28 142 -28 72 0 94 4 147 29 68 31 138 98 171 162 35 69 42 136 42 394 l0
250 -356 0 -355 0 3 -287z"/>
</g>
</svg>
