<?xml version="1.0" standalone="no"?>
<!DOCTYPE svg PUBLIC "-//W3C//DTD SVG 20010904//EN"
 "http://www.w3.org/TR/2001/REC-SVG-20010904/DTD/svg10.dtd">
<svg version="1.0" xmlns="http://www.w3.org/2000/svg"
 width="500.000000pt" height="500.000000pt" viewBox="0 0 500.000000 500.000000"
 preserveAspectRatio="xMidYMid meet">
<metadata>
Created by potrace 1.16, written by Peter Selinger 2001-2019
</metadata>
<g transform="translate(0.000000,500.000000) scale(0.100000,-0.100000)"
fill="#000000" stroke="none">
<path d="M517 4482 c-257 -257 -467 -472 -467 -477 0 -5 366 -376 812 -822
l813 -813 -637 -637 -636 -638 -101 -380 c-56 -210 -101 -399 -101 -422 0 -56
37 -93 94 -93 36 0 719 174 786 201 14 5 839 823 1832 1817 1431 1432 1811
1817 1831 1857 40 80 57 153 57 240 0 374 -381 599 -725 428 -39 -19 -209
-183 -748 -721 l-697 -697 -813 813 c-446 446 -817 812 -822 812 -6 0 -220
-210 -478 -468z m565 -45 l-62 -63 78 -77 77 -77 63 62 62 63 72 -73 73 -72
-113 -113 -112 -112 77 -78 78 -77 112 112 113 113 72 -73 73 -72 -63 -62 -62
-63 77 -77 77 -78 63 62 63 63 72 -73 73 -72 -113 -113 -112 -112 77 -78 78
-77 112 112 113 113 72 -73 73 -72 -63 -62 -62 -63 65 -65 65 -65 -260 -260
-260 -260 -740 740 -740 740 322 322 323 323 75 -75 75 -75 -63 -63z m3148
-212 l195 -195 -1715 -1715 -1715 -1715 -197 197 -198 198 1712 1712 c942 942
1715 1713 1718 1713 3 0 93 -88 200 -195z"/>
<path d="M3257 2412 l-137 -137 78 -78 77 -77 63 62 62 63 72 -73 73 -72 -113
-113 -112 -112 77 -78 78 -77 112 112 113 113 72 -73 73 -72 -63 -62 -62 -63
77 -77 77 -78 63 62 63 63 72 -73 73 -72 -113 -113 -112 -112 77 -78 78 -77
112 112 113 113 72 -73 73 -72 -63 -63 -62 -63 78 -77 77 -77 62 62 62 62 26
-24 26 -24 -323 -323 -323 -323 -695 695 c-382 382 -700 695 -705 695 -13 0
-145 -132 -145 -145 0 -13 1532 -1545 1545 -1545 13 0 945 932 945 945 0 10
-1540 1555 -1550 1555 -3 0 -67 -62 -143 -138z"/>
</g>
</svg>
