<?xml version="1.0" standalone="no"?>
<!DOCTYPE svg PUBLIC "-//W3C//DTD SVG 20010904//EN"
 "http://www.w3.org/TR/2001/REC-SVG-20010904/DTD/svg10.dtd">
<svg version="1.0" xmlns="http://www.w3.org/2000/svg"
 width="225.000000pt" height="225.000000pt" viewBox="0 0 225.000000 225.000000"
 preserveAspectRatio="xMidYMid meet">
<metadata>
Created by potrace 1.16, written by Peter Selinger 2001-2019
</metadata>
<g transform="translate(0.000000,225.000000) scale(0.100000,-0.100000)"
fill="#000000" stroke="none">
<path d="M99 1848 c-115 -88 -130 -239 -33 -347 l44 -49 0 -93 c0 -76 4 -100
19 -123 44 -66 120 -76 179 -22 l37 34 4 104 3 103 39 42 c79 85 85 214 16
305 -37 47 -96 84 -120 75 -14 -5 -17 -22 -17 -107 l0 -100 -40 0 -39 0 -3
103 c-3 95 -4 102 -24 105 -12 2 -40 -11 -65 -30z m50 -229 c17 -14 40 -19 82
-19 83 0 99 17 99 111 0 80 11 83 42 12 32 -71 19 -126 -43 -186 l-49 -47 0
-104 c0 -113 -9 -136 -54 -136 -40 0 -46 18 -46 132 0 97 -2 109 -22 128 -12
11 -25 20 -29 20 -5 0 -20 20 -34 43 -31 55 -32 106 -2 166 l22 46 6 -74 c4
-61 10 -77 28 -92z"/>
<path d="M519 1728 l7 -33 663 -3 c470 -1 668 -5 678 -13 9 -8 13 -39 13 -104
l0 -93 35 -4 35 -4 0 97 c0 115 -8 142 -52 169 -32 19 -51 20 -709 20 l-676 0
6 -32z"/>
<path d="M1805 1366 c-24 -31 -29 -33 -70 -28 -42 4 -47 2 -86 -37 -40 -40
-41 -42 -35 -91 4 -33 3 -50 -4 -50 -6 0 -22 -11 -35 -25 -21 -20 -25 -34 -25
-81 0 -51 3 -59 34 -88 32 -29 34 -35 29 -74 -5 -39 -3 -45 35 -83 38 -37 45
-40 87 -38 42 3 49 0 71 -29 16 -20 37 -34 60 -38 50 -9 112 11 126 42 12 26
14 27 70 24 71 -3 135 69 123 138 -5 34 -3 39 20 50 62 29 58 177 -5 197 -18
6 -20 12 -14 50 6 41 4 46 -37 90 -42 46 -45 47 -92 42 -44 -4 -49 -2 -62 23
-18 35 -32 40 -105 40 -55 0 -61 -2 -85 -34z m133 -58 c2 -17 9 -28 18 -28 8
0 29 -7 46 -16 22 -11 33 -13 41 -5 16 16 38 14 59 -6 22 -20 22 -27 3 -46
-12 -13 -12 -19 5 -53 11 -21 20 -44 20 -52 0 -7 6 -12 13 -11 33 4 38 -2 35
-38 -2 -29 -8 -39 -23 -41 -13 -2 -28 -20 -42 -50 -20 -43 -21 -48 -6 -65 16
-17 15 -20 -10 -44 -25 -25 -27 -26 -45 -10 -18 16 -21 16 -65 -3 -32 -14 -47
-27 -49 -43 -2 -18 -9 -22 -38 -22 -29 0 -36 4 -38 23 -2 14 -14 27 -30 33
-15 5 -35 14 -45 20 -14 8 -24 6 -42 -5 -21 -14 -24 -13 -46 10 -20 21 -22 28
-11 45 18 28 -13 107 -43 111 -16 2 -20 11 -20 43 0 32 3 39 17 37 12 -2 23
12 38 45 17 40 19 51 9 70 -11 20 -9 26 11 48 22 23 25 24 42 8 15 -13 23 -14
41 -5 12 6 34 16 50 22 16 6 27 17 27 28 0 27 10 33 45 30 24 -2 31 -8 33 -30z"/>
<path d="M1854 1166 c-78 -34 -99 -126 -44 -190 36 -40 76 -52 123 -36 107 35
115 183 12 226 -42 17 -51 17 -91 0z"/>
<path d="M1033 1378 c-20 -25 -155 -409 -149 -423 8 -23 36 -30 51 -14 7 8 45
105 85 216 61 168 71 205 60 218 -15 18 -34 19 -47 3z"/>
<path d="M643 1264 c-90 -58 -133 -92 -133 -104 0 -23 260 -193 287 -188 11 2
19 14 21 28 2 22 -10 33 -98 88 -55 35 -100 68 -100 72 0 4 45 37 100 72 88
55 100 66 98 88 -5 44 -37 34 -175 -56z"/>
<path d="M1151 1336 c-19 -23 -4 -39 99 -105 55 -35 100 -67 100 -71 0 -4 -45
-36 -100 -71 -55 -35 -102 -70 -105 -78 -7 -17 12 -41 33 -41 19 0 270 161
276 177 3 7 3 19 0 25 -6 17 -257 178 -276 178 -9 0 -21 -6 -27 -14z"/>
<path d="M192 873 c3 -261 5 -270 64 -298 26 -12 88 -15 353 -15 l321 0 0 -60
0 -59 -61 -3 c-69 -3 -94 -23 -70 -52 12 -14 46 -16 280 -14 l266 3 3 24 c5
32 -12 41 -80 41 l-58 0 0 60 0 59 334 3 c320 3 336 4 362 24 15 11 30 26 32
32 3 9 -190 12 -827 12 -811 0 -831 0 -841 19 -6 12 -10 107 -10 240 l0 221
-36 0 -35 0 3 -237z m948 -373 l0 -60 -70 0 -70 0 0 60 0 60 70 0 70 0 0 -60z"/>
</g>
</svg>
