<?xml version="1.0" standalone="no"?>
<!DOCTYPE svg PUBLIC "-//W3C//DTD SVG 20010904//EN"
 "http://www.w3.org/TR/2001/REC-SVG-20010904/DTD/svg10.dtd">
<svg version="1.0" xmlns="http://www.w3.org/2000/svg"
 width="512.000000pt" height="512.000000pt" viewBox="0 0 512.000000 512.000000"
 preserveAspectRatio="xMidYMid meet">
<metadata>
Created by potrace 1.16, written by Peter Selinger 2001-2019
</metadata>
<g transform="translate(0.000000,512.000000) scale(0.100000,-0.100000)"
fill="#000000" stroke="none">
<path d="M1145 5114 c-11 -3 -56 -12 -100 -20 -499 -96 -911 -509 -1022 -1024
-26 -120 -26 -420 0 -540 124 -577 594 -995 1180 -1049 397 -37 767 98 1053
383 233 233 355 495 384 824 59 660 -385 1260 -1040 1407 -73 17 -407 30 -455
19z m312 -174 c446 -59 825 -371 957 -788 128 -407 31 -834 -259 -1141 -306
-324 -758 -440 -1187 -305 -300 95 -573 342 -698 632 -178 414 -110 866 183
1211 242 285 637 439 1004 391z"/>
<path d="M1189 4772 c-155 -57 -256 -179 -279 -337 -5 -38 -10 -106 -10 -150
0 -167 34 -268 119 -358 46 -49 51 -58 51 -99 l0 -46 -185 -62 c-205 -69 -246
-94 -287 -178 -22 -45 -23 -58 -26 -309 l-3 -263 751 0 751 0 -3 268 c-3 253
-4 269 -25 308 -43 80 -88 107 -289 174 l-184 62 0 46 c0 42 5 51 49 97 54 55
94 126 110 195 14 58 14 262 1 331 -30 155 -140 280 -286 324 -65 20 -196 18
-255 -3z m237 -180 c50 -26 99 -77 118 -124 24 -57 22 -299 -3 -353 -37 -82
-136 -145 -227 -145 -48 0 -130 38 -166 76 -55 59 -68 106 -68 249 0 109 4
137 21 175 59 130 204 184 325 122z m-26 -867 l0 -73 230 -77 c167 -56 234
-83 245 -98 12 -17 15 -55 15 -179 l0 -158 -570 0 -570 0 0 158 c0 124 3 162
15 179 11 15 78 42 245 98 l230 77 0 73 0 73 80 0 80 0 0 -73z"/>
<path d="M3050 4540 l0 -90 90 0 90 0 0 90 0 90 -90 0 -90 0 0 -90z"/>
<path d="M3550 4540 l0 -90 85 0 85 0 0 90 0 90 -85 0 -85 0 0 -90z"/>
<path d="M4040 4540 l0 -90 90 0 90 0 0 90 0 90 -90 0 -90 0 0 -90z"/>
<path d="M3440 4115 c-412 -92 -708 -392 -784 -795 -11 -58 -16 -144 -16 -290
l0 -208 -37 -73 c-32 -64 -38 -84 -41 -161 -7 -142 32 -242 128 -332 81 -76
191 -116 322 -116 44 0 49 -2 78 -45 17 -24 53 -67 80 -93 l50 -49 0 -74 0
-74 -323 -74 c-177 -40 -343 -81 -369 -91 l-47 -18 -3 262 -3 263 -30 49 c-37
59 -113 108 -181 118 -84 11 -2018 7 -2073 -5 -62 -13 -122 -55 -158 -111
l-28 -43 0 -831 0 -831 30 -49 c19 -30 49 -60 79 -79 l49 -30 369 -3 368 -3 0
-79 0 -80 -80 0 -80 0 0 -85 0 -85 2190 0 2190 0 0 591 c0 650 0 655 -62 771
-53 100 -147 196 -237 243 -65 33 -166 61 -468 130 l-303 70 0 74 0 74 66 69
c36 38 70 80 76 94 10 20 18 24 57 24 25 0 75 5 111 10 286 46 440 368 295
616 -24 42 -25 47 -25 241 0 334 -39 486 -175 693 -88 132 -263 281 -409 345
-132 59 -220 77 -386 81 -111 3 -173 0 -220 -11z m413 -190 c151 -44 263 -112
373 -227 108 -112 178 -245 209 -393 21 -101 21 -360 1 -352 -8 3 -32 9 -53
12 -90 15 -83 7 -83 95 l0 80 -90 0 c-89 0 -90 0 -90 -24 0 -29 -32 -54 -116
-93 l-56 -25 -63 62 -64 63 -37 -33 c-21 -18 -67 -46 -102 -63 l-64 -30 -63
63 -63 63 -44 -35 c-76 -62 -193 -108 -275 -108 l-33 0 0 80 0 80 -85 0 -85 0
0 -80 0 -79 -37 -6 c-21 -3 -54 -10 -74 -15 -20 -6 -40 -10 -44 -10 -16 0 3
302 24 385 80 310 336 550 652 610 106 21 252 13 362 -20z m257 -1552 l-11
-53 -235 0 -234 0 0 -90 0 -90 176 0 c201 0 201 0 90 -72 -198 -128 -453 -96
-614 76 -113 122 -142 219 -142 483 l0 171 68 8 c37 3 87 13 112 20 59 18 60
18 60 -8 0 -21 2 -21 108 -15 59 4 130 13 157 22 64 19 65 19 65 -7 0 -21 2
-21 103 -15 106 7 191 25 261 55 l41 18 3 -225 c2 -143 -1 -245 -8 -278z
m-1140 225 c0 -112 4 -220 9 -240 9 -38 9 -38 -23 -38 -71 1 -160 61 -199 135
-45 84 -23 209 50 277 33 31 108 67 141 68 l22 0 0 -202z m1446 167 c158 -92
157 -318 -1 -411 -25 -14 -67 -29 -92 -32 -45 -5 -46 -4 -38 19 4 13 10 122
12 243 l5 218 35 -5 c19 -3 55 -18 79 -32z m-2138 -645 c11 -11 24 -35 27 -52
3 -18 5 -368 3 -776 l-3 -744 -28 -24 -28 -24 -340 0 -339 0 0 115 c0 147 -19
204 -95 280 -166 165 -445 115 -540 -97 -23 -50 -28 -79 -32 -179 l-6 -119
-328 0 c-347 0 -368 2 -388 47 -8 17 -11 248 -11 784 l0 760 25 24 24 25 1019
0 c1004 0 1019 0 1040 -20z m1357 -303 c94 0 134 4 183 20 l62 21 0 -38 c0
-36 -4 -41 -112 -122 -62 -46 -119 -87 -125 -92 -8 -4 -59 28 -133 84 -117 88
-120 92 -120 129 l0 39 63 -21 c48 -16 88 -20 182 -20z m-260 -248 c52 -39 95
-73 95 -75 0 -5 -168 -104 -177 -104 -5 0 -18 52 -28 116 -15 98 -16 117 -4
125 8 5 15 9 17 9 1 0 45 -32 97 -71z m654 55 c2 -2 -7 -57 -20 -123 l-24
-120 -96 57 -96 57 96 72 c89 67 116 78 140 57z m-915 -280 c21 -131 40 -241
42 -243 2 -2 37 18 79 43 42 26 81 48 87 49 6 1 21 -29 34 -66 l23 -68 -37
-445 -37 -444 -202 0 -203 0 0 455 0 455 -90 0 -90 0 0 -455 0 -455 -200 0
-200 0 0 83 0 83 44 31 c50 35 88 84 105 132 7 23 11 172 11 475 l0 441 33 21
c17 11 48 26 67 34 41 17 470 119 485 116 5 -2 27 -110 49 -242z m1607 111
c104 -53 184 -153 215 -269 11 -40 14 -157 14 -533 l0 -483 -200 0 -200 0 0
455 0 455 -90 0 -90 0 0 -455 0 -455 -205 0 c-113 0 -205 3 -205 8 0 4 -16
203 -36 442 l-36 435 23 73 c12 39 24 72 25 72 2 0 40 -22 85 -50 46 -27 84
-48 86 -46 2 1 24 106 49 232 25 126 47 234 49 240 5 16 450 -88 516 -121z
m-1014 -116 c38 -23 69 -42 70 -43 1 -1 -7 -32 -19 -69 l-22 -67 -102 0 -102
0 -22 66 c-12 36 -19 68 -16 71 10 10 131 82 138 83 4 0 38 -19 75 -41z m14
-376 c0 -16 15 -200 32 -410 l33 -383 -154 0 -153 0 5 53 c4 28 17 189 31 357
14 168 27 329 31 358 l5 52 85 0 84 0 1 -27z m-2406 -166 c26 -14 48 -37 63
-67 21 -42 22 -55 22 -302 l0 -258 -160 0 -160 0 0 259 c0 160 4 271 11 288
34 91 139 128 224 80z m825 -547 l0 -80 -285 0 -285 0 0 80 0 80 285 0 285 0
0 -80z"/>
</g>
</svg>
