<?xml version="1.0" standalone="no"?>
<!DOCTYPE svg PUBLIC "-//W3C//DTD SVG 20010904//EN"
 "http://www.w3.org/TR/2001/REC-SVG-20010904/DTD/svg10.dtd">
<svg version="1.0" xmlns="http://www.w3.org/2000/svg"
 width="231.000000pt" height="218.000000pt" viewBox="0 0 231.000000 218.000000"
 preserveAspectRatio="xMidYMid meet">
<metadata>
Created by potrace 1.16, written by Peter Selinger 2001-2019
</metadata>
<g transform="translate(0.000000,218.000000) scale(0.100000,-0.100000)"
fill="#000000" stroke="none">
<path d="M1215 2168 c-32 -19 -44 -40 -45 -80 0 -30 -4 -38 -18 -38 -41 0
-122 32 -165 65 l-47 36 0 -26 c0 -31 17 -65 39 -82 15 -10 14 -12 -1 -18 -9
-4 -22 -4 -28 0 -17 10 -11 -11 10 -38 11 -14 29 -29 40 -32 27 -9 25 -25 -2
-25 -22 -1 -22 -1 5 -25 15 -14 37 -25 48 -25 10 0 19 -5 19 -10 0 -14 -60
-50 -82 -50 -32 0 -19 -19 18 -26 55 -10 146 1 191 25 84 42 153 144 153 225
0 23 7 47 17 58 16 18 16 18 0 12 -11 -4 -17 -1 -17 9 0 8 6 18 13 20 6 3 2 6
-9 6 -12 1 -35 8 -50 16 -34 18 -62 19 -89 3z"/>
<path d="M1836 2104 c-3 -9 -6 -26 -6 -38 0 -13 -26 -47 -70 -91 l-71 -70 3
-140 3 -140 74 -3 c64 -3 73 -1 67 13 -3 9 -1 25 4 35 7 13 7 27 -1 43 -8 17
-8 30 -1 43 6 11 7 27 1 42 -6 14 -5 30 1 42 13 24 -6 70 -29 70 -9 0 5 21 37
53 45 46 52 58 52 93 0 22 -5 45 -12 52 -17 17 -45 15 -52 -4z"/>
<path d="M400 1980 c0 -25 4 -30 25 -30 50 0 139 -43 192 -93 58 -55 87 -106
103 -184 10 -47 14 -53 37 -53 24 0 25 2 21 48 -14 142 -130 277 -276 322 -90
28 -102 27 -102 -10z"/>
<path d="M1588 1755 l3 -135 40 0 39 0 0 135 0 135 -42 0 -43 0 3 -135z"/>
<path d="M400 1842 c0 -24 5 -29 44 -40 59 -15 109 -65 132 -129 16 -46 22
-53 45 -53 25 0 26 2 19 39 -16 87 -83 165 -169 196 -61 21 -71 19 -71 -13z"/>
<path d="M1160 1265 c0 -418 0 -425 20 -425 20 0 20 7 20 425 0 418 0 425 -20
425 -20 0 -20 -7 -20 -425z"/>
<path d="M119 1491 c-38 -39 -40 -96 -4 -139 l25 -29 -45 -17 c-47 -18 -78
-52 -89 -99 l-7 -28 53 3 c49 3 52 5 60 34 7 30 68 94 88 94 4 0 2 14 -7 31
-20 41 -10 88 27 124 37 35 25 55 -32 55 -30 0 -46 -7 -69 -29z"/>
<path d="M723 1494 c-4 -11 46 -68 176 -198 l181 -181 -7 -138 -6 -137 26 0
27 0 0 148 0 147 -188 188 c-103 103 -191 187 -195 187 -4 0 -10 -7 -14 -16z"/>
<path d="M1414 1327 l-192 -182 -1 -152 c-1 -147 0 -153 19 -153 19 0 20 7 21
143 l0 142 190 179 c152 143 187 181 178 192 -6 8 -14 14 -18 14 -3 -1 -92
-83 -197 -183z"/>
<path d="M1880 1363 l0 -133 171 0 172 0 43 -36 44 -35 0 165 0 165 -215 3
-215 3 0 -132z"/>
<path d="M265 1471 c-59 -25 -78 -100 -36 -145 l23 -24 -36 -12 c-40 -13 -86
-62 -86 -91 0 -18 9 -19 166 -19 l165 0 -6 23 c-13 42 -37 69 -76 85 l-38 15
19 25 c54 68 -18 175 -95 143z"/>
<path d="M1560 1144 l-225 -92 -7 -39 c-4 -21 -7 -68 -7 -105 -1 -66 0 -68 24
-68 24 0 24 2 27 92 l3 92 205 83 c113 46 209 88 213 92 5 5 5 15 1 23 -7 12
-51 -3 -234 -78z"/>
<path d="M560 1220 c0 -5 1 -13 2 -17 0 -5 92 -47 202 -94 l201 -86 3 -91 c3
-84 4 -92 23 -92 19 0 20 6 17 105 l-3 106 -210 89 c-211 90 -235 99 -235 80z"/>
<path d="M322 994 c-20 -14 -22 -23 -22 -115 0 -142 -3 -139 134 -139 l112 0
65 -45 64 -45 3 44 c2 28 10 50 23 61 17 16 19 32 19 126 0 97 -2 109 -19 119
-11 6 -91 10 -188 10 -136 0 -173 -3 -191 -16z m356 -117 c3 -81 1 -89 -17
-94 -12 -3 -21 -15 -23 -29 l-3 -24 -37 25 c-34 23 -46 25 -147 25 l-111 0 0
79 c0 44 3 87 6 95 6 14 27 16 168 14 l161 -3 3 -88z"/>
<path d="M782 798 c-17 -17 -17 -419 0 -436 9 -9 114 -12 410 -12 383 0 398 1
408 19 6 12 10 98 10 211 0 113 -4 199 -10 211 -10 18 -25 19 -408 19 -296 0
-401 -3 -410 -12z m278 -218 l0 -150 -30 0 -30 0 0 150 0 150 30 0 30 0 0
-150z m350 115 c35 -18 60 -52 60 -82 0 -21 -5 -23 -50 -23 l-50 0 0 -55 c0
-61 -8 -67 -60 -40 -75 39 -80 162 -9 201 32 18 74 17 109 -1z"/>
<path d="M1690 620 c0 -47 4 -80 10 -80 6 0 10 -9 10 -20 0 -25 8 -25 40 0 21
16 41 20 118 20 l92 0 0 80 0 80 -135 0 -135 0 0 -80z"/>
<path d="M881 256 c-29 -30 -50 -59 -47 -65 5 -8 -111 -11 -413 -11 l-421 0 0
-90 0 -90 1155 0 1155 0 0 90 0 90 -415 0 c-392 0 -415 1 -415 18 0 10 -22 39
-48 65 l-48 47 -225 0 -225 0 -53 -54z"/>
</g>
</svg>
