<?xml version="1.0" standalone="no"?>
<!DOCTYPE svg PUBLIC "-//W3C//DTD SVG 20010904//EN"
 "http://www.w3.org/TR/2001/REC-SVG-20010904/DTD/svg10.dtd">
<svg version="1.0" xmlns="http://www.w3.org/2000/svg"
 width="626.000000pt" height="626.000000pt" viewBox="0 0 626.000000 626.000000"
 preserveAspectRatio="xMidYMid meet">
<metadata>
Created by potrace 1.16, written by Peter Selinger 2001-2019
</metadata>
<g transform="translate(0.000000,626.000000) scale(0.100000,-0.100000)"
fill="#000000" stroke="none">
<path d="M2830 6245 c-639 -70 -1183 -293 -1670 -683 -221 -178 -485 -468
-634 -697 -21 -33 -46 -71 -56 -85 -9 -14 -43 -72 -75 -129 -435 -778 -513
-1717 -215 -2565 115 -324 299 -654 520 -928 97 -120 339 -362 460 -459 186
-150 468 -326 657 -410 37 -17 84 -37 103 -46 140 -64 489 -165 681 -197 448
-75 867 -57 1304 54 542 138 1026 412 1421 805 233 232 393 443 548 722 246
442 385 987 386 1503 0 464 -111 949 -314 1365 -102 209 -239 425 -385 604
-73 92 -284 311 -366 382 -190 165 -428 327 -640 436 -430 222 -949 345 -1440
342 -93 -1 -222 -7 -285 -14z m675 -330 c387 -55 700 -165 1060 -369 177 -100
392 -270 569 -450 437 -445 700 -989 787 -1626 17 -126 17 -556 0 -680 -46
-332 -137 -633 -276 -911 -330 -659 -901 -1161 -1596 -1404 -341 -119 -726
-170 -1100 -147 -766 48 -1475 408 -1970 997 -349 417 -565 910 -640 1465 -17
126 -17 556 0 680 62 454 208 847 452 1216 328 495 835 892 1394 1091 207 73
500 137 704 153 143 12 493 3 616 -15z"/>
<path d="M4430 4909 c-25 -5 -144 -25 -265 -44 -215 -35 -328 -53 -705 -115
-335 -54 -794 -128 -872 -141 l-78 -12 0 -1225 0 -1224 -32 6 c-84 18 -248 18
-323 1 -269 -60 -466 -284 -439 -499 19 -143 135 -256 309 -301 87 -22 243
-20 340 6 205 53 377 221 405 395 6 35 10 468 10 1087 0 813 3 1029 13 1032
12 5 195 39 397 75 58 10 193 35 300 55 107 20 319 59 470 86 151 28 285 53
298 56 l22 5 0 -836 0 -836 -24 10 c-13 4 -59 14 -103 20 -90 13 -180 4 -290
-30 -52 -16 -168 -72 -183 -90 -3 -3 -22 -18 -43 -33 -20 -16 -55 -52 -77 -82
-173 -234 -70 -504 222 -587 62 -17 91 -20 193 -15 133 6 204 24 306 78 80 43
178 138 213 208 57 112 56 66 56 1574 l0 1387 -37 -1 c-21 -1 -58 -5 -83 -10z"/>
</g>
</svg>
