<?xml version="1.0" standalone="no"?>
<!DOCTYPE svg PUBLIC "-//W3C//DTD SVG 20010904//EN"
 "http://www.w3.org/TR/2001/REC-SVG-20010904/DTD/svg10.dtd">
<svg version="1.0" xmlns="http://www.w3.org/2000/svg"
 width="820.000000pt" height="860.000000pt" viewBox="0 0 820.000000 860.000000"
 preserveAspectRatio="xMidYMid meet">
<metadata>
Created by potrace 1.16, written by Peter Selinger 2001-2019
</metadata>
<g transform="translate(0.000000,860.000000) scale(0.100000,-0.100000)"
fill="#000000" stroke="none">
<path d="M3610 8189 c-30 -5 -93 -28 -140 -51 -68 -34 -103 -60 -172 -130 -73
-73 -95 -102 -135 -185 l-48 -98 0 -145 0 -145 41 -85 c74 -153 162 -247 301
-322 89 -48 168 -68 268 -68 100 0 180 20 265 66 146 80 228 168 304 324 l41
85 0 145 c0 142 -1 146 -31 211 -139 294 -401 444 -694 398z m274 -264 c62
-30 152 -120 183 -183 25 -51 28 -67 28 -162 0 -92 -3 -112 -26 -161 -30 -64
-113 -149 -173 -179 -130 -62 -296 -45 -401 41 -107 88 -153 196 -142 333 7
95 32 152 99 222 53 56 106 90 163 105 56 15 226 5 269 -16z"/>
<path d="M5431 7565 c-20 -9 -185 -166 -396 -375 l-361 -360 -412 0 -412 0 0
-125 0 -125 413 1 c226 0 435 4 464 8 63 9 71 16 463 400 l285 280 98 -97 97
-97 -378 -377 -377 -378 -405 -45 c-459 -51 -696 -82 -719 -95 -37 -19 -53
-57 -124 -300 -156 -531 -191 -674 -176 -719 17 -47 120 -105 854 -472 220
-111 405 -206 412 -212 18 -19 543 -1181 543 -1204 0 -21 -256 -149 -281 -141
-4 2 -134 210 -287 463 -364 603 -429 704 -457 715 -13 5 -173 47 -357 95
-337 87 -456 121 -472 136 -6 5 -4 31 3 64 7 31 11 59 8 61 -9 10 -217 67
-223 61 -3 -3 -60 -185 -125 -404 -66 -219 -149 -488 -185 -598 l-64 -200
-112 -95 c-87 -73 -1062 -872 -1126 -923 -10 -8 -37 14 -113 89 -54 54 -98
102 -97 105 2 4 210 216 463 473 l460 467 21 67 c12 37 101 306 197 597 157
477 176 539 181 620 25 347 102 1118 117 1177 9 35 14 39 72 56 34 11 91 25
125 32 35 7 66 19 69 26 4 12 -42 203 -53 213 -2 3 -44 -3 -92 -13 -116 -23
-794 -191 -877 -217 l-66 -20 -340 -336 -340 -337 -97 97 -97 97 389 389 388
388 102 27 c430 115 1038 283 1116 309 108 37 105 30 70 147 -35 117 -9 114
-301 36 -313 -84 -749 -202 -946 -257 -125 -34 -157 -48 -203 -82 -64 -49
-668 -644 -811 -799 -94 -101 -99 -110 -99 -151 0 -37 7 -52 54 -109 30 -36
112 -124 183 -195 232 -234 241 -236 389 -105 54 49 233 220 397 381 l297 293
190 49 c104 27 195 49 201 49 9 0 10 -30 5 -112 -5 -93 -67 -794 -93 -1048 -4
-44 -61 -233 -179 -590 l-174 -525 -242 -245 c-397 -401 -659 -671 -722 -743
-72 -82 -75 -110 -25 -184 42 -63 320 -339 383 -381 81 -53 94 -49 258 81 391
308 1267 1036 1295 1075 6 9 64 187 127 394 120 392 151 484 166 493 9 5 599
-140 711 -175 62 -20 65 -22 108 -93 25 -39 165 -271 311 -513 384 -635 418
-682 489 -670 56 9 519 245 563 287 58 55 54 83 -41 297 -66 148 -402 887
-523 1153 -31 66 -42 80 -92 113 -31 20 -267 144 -524 275 -445 227 -586 302
-606 321 -11 11 -5 34 96 392 77 275 82 287 107 292 14 3 109 15 211 26 336
37 785 90 812 96 37 7 217 174 583 539 351 350 385 388 392 442 4 34 0 45 -38
93 -57 73 -332 353 -378 384 -48 33 -79 39 -120 21z"/>
<path d="M5295 2441 c-71 -3 -136 -10 -143 -14 -6 -5 -20 -23 -29 -40 -15 -27
-18 -62 -18 -232 l0 -200 123 -3 122 -3 0 126 0 125 1250 0 1250 0 0 -1000 0
-1000 126 0 126 0 -4 1078 c-4 1163 -1 1112 -57 1149 -24 17 -101 18 -1321 19
-712 0 -1353 -2 -1425 -5z"/>
<path d="M2790 1691 c-69 -3 -131 -10 -138 -14 -6 -5 -20 -23 -29 -40 -14 -26
-18 -69 -21 -234 l-4 -203 126 0 126 0 0 125 0 125 1125 0 1125 0 0 -625 0
-625 126 0 126 0 -4 703 c-3 646 -5 705 -21 734 -9 18 -27 38 -40 45 -17 10
-262 13 -1197 14 -646 0 -1231 -2 -1300 -5z"/>
<path d="M290 941 c-69 -3 -131 -10 -139 -15 -7 -5 -20 -25 -29 -45 -14 -30
-17 -90 -20 -359 l-4 -322 126 0 126 0 0 250 0 250 1125 0 1125 0 0 -250 0
-250 126 0 126 0 -4 323 c-4 348 -9 380 -60 409 -19 11 -240 13 -1198 14 -646
0 -1231 -2 -1300 -5z"/>
</g>
</svg>
