<?xml version="1.0" standalone="no"?>
<!DOCTYPE svg PUBLIC "-//W3C//DTD SVG 20010904//EN"
 "http://www.w3.org/TR/2001/REC-SVG-20010904/DTD/svg10.dtd">
<svg version="1.0" xmlns="http://www.w3.org/2000/svg"
 width="215.000000pt" height="215.000000pt" viewBox="0 0 215.000000 215.000000"
 preserveAspectRatio="xMidYMid meet">
<metadata>
Created by potrace 1.16, written by Peter Selinger 2001-2019
</metadata>
<g transform="translate(0.000000,215.000000) scale(0.100000,-0.100000)"
fill="#000000" stroke="none">
<path d="M731 1508 c-12 -46 -21 -86 -21 -90 0 -5 162 -8 360 -8 198 0 360 3
360 8 0 4 -9 44 -21 90 l-22 82 -317 0 -317 0 -22 -82z"/>
<path d="M370 1205 l0 -155 173 0 173 0 23 56 c29 70 101 143 178 181 51 25
69 28 153 28 84 0 102 -3 153 -28 77 -38 149 -111 178 -181 l23 -56 173 0 173
0 0 155 0 155 -700 0 -700 0 0 -155z m1313 53 c41 -48 8 -128 -54 -128 -43 0
-65 15 -78 51 -28 81 76 143 132 77z"/>
<path d="M935 1241 c-96 -46 -154 -122 -174 -228 -12 -62 -1 -145 28 -200 27
-53 97 -118 156 -145 70 -32 180 -32 250 0 169 77 237 271 153 439 -72 143
-264 206 -413 134z m241 -57 c189 -90 188 -362 -1 -450 -121 -57 -266 -8 -327
110 -70 137 4 310 153 355 46 14 129 7 175 -15z"/>
<path d="M990 1144 c-75 -32 -120 -102 -120 -184 0 -64 18 -106 63 -149 98
-93 263 -60 322 65 32 68 10 180 -46 231 -56 51 -150 67 -219 37z"/>
<path d="M370 960 l0 -40 170 0 170 0 0 40 0 40 -170 0 -170 0 0 -40z"/>
<path d="M1430 960 l0 -40 170 0 170 0 0 40 0 40 -170 0 -170 0 0 -40z"/>
<path d="M370 715 l0 -155 700 0 700 0 0 155 0 155 -173 0 -173 0 -24 -57
c-28 -69 -104 -149 -171 -181 -98 -47 -220 -47 -318 0 -65 31 -142 112 -171
180 l-25 58 -172 0 -173 0 0 -155z"/>
</g>
</svg>
